<svg width="17" height="17" viewBox="0 0 17 17" fill="none" xmlns="http://www.w3.org/2000/svg">
<path d="M4.65955 3.05227L1.93182 5.79545C-0.641364 8.35318 -0.641364 12.5105 1.93182 15.0682C4.505 17.6259 8.64682 17.6414 11.2045 15.0682L15.8409 10.4318C16.6136 9.68227 16.6136 8.45364 15.8409 7.69636C15.7636 7.60364 15.6632 7.51864 15.555 7.44909L15.8409 7.14773C16.6136 6.39818 16.6136 5.16955 15.8409 4.41227C15.7327 4.28864 15.5859 4.18045 15.4545 4.09545C15.7482 3.38455 15.6168 2.53455 15.0373 1.955C14.365 1.28273 13.3218 1.21318 12.5645 1.73864C12.4073 1.49645 12.1981 1.29231 11.9522 1.14104C11.7062 0.989765 11.4296 0.895158 11.1426 0.864082C10.8555 0.833007 10.5651 0.866243 10.2924 0.961378C10.0198 1.05651 9.77179 1.21116 9.56636 1.41409L7.62682 3.35364C7.55727 3.24545 7.47227 3.145 7.37955 3.05227C7.01488 2.69915 6.52716 2.5017 6.01955 2.5017C5.51193 2.5017 5.02421 2.69915 4.65955 3.05227ZM5.74909 4.14955C5.90364 3.995 6.14318 3.995 6.29773 4.14955C6.45227 4.30409 6.45227 4.54364 6.29773 4.69818L3.84045 7.15545C4.27457 7.59011 4.51841 8.17932 4.51841 8.79364C4.51841 9.40796 4.27457 9.99716 3.84045 10.4318L4.93 11.5214C5.46111 10.9898 5.82582 10.3149 5.97952 9.57934C6.13322 8.84377 6.06926 8.07935 5.79545 7.37955L10.6636 2.51136C10.8182 2.35682 11.0577 2.35682 11.2045 2.51136C11.3514 2.66591 11.3668 2.90545 11.2045 3.06L7.65773 6.61455L8.74727 7.70409L13.3914 3.06C13.5459 2.90545 13.7855 2.90545 13.94 3.06C14.0945 3.21455 14.0945 3.45409 13.94 3.60864L9.29591 8.25273L10.3855 9.34227L14.2105 5.51727C14.365 5.36273 14.6045 5.36273 14.7591 5.51727C14.9136 5.67182 14.9136 5.91136 14.7591 6.06591L10.3855 10.4318L11.475 11.5291L14.2105 8.79364C14.365 8.63909 14.6045 8.63909 14.7591 8.79364C14.9136 8.94818 14.9136 9.18773 14.7591 9.34227L10.1227 13.9864C8.16 15.9491 4.98409 15.9491 3.02136 13.9864C1.05864 12.0236 1.05864 8.84773 3.02136 6.885L5.74909 4.14955ZM17 12.3636C17 14.9214 14.9214 17 12.3636 17V15.8409C14.2955 15.8409 15.8409 14.2955 15.8409 12.3636H17ZM0 4.63636C0 2.07864 2.07864 0 4.63636 0V1.15909C2.70455 1.15909 1.15909 2.70455 1.15909 4.63636H0Z" fill="#FAFAFA"/>
</svg>
