<svg width="21" height="16" viewBox="0 0 21 16" fill="none" xmlns="http://www.w3.org/2000/svg">
<path d="M9.01461 15.4536C9.01461 15.4536 7.72681 15.4536 7.72681 14.1658C7.72681 12.878 9.01461 9.0146 14.1658 9.0146C19.317 9.0146 20.6048 12.878 20.6048 14.1658C20.6048 15.4536 19.317 15.4536 19.317 15.4536H9.01461ZM14.1658 7.7268C15.1904 7.7268 16.1731 7.31976 16.8976 6.59524C17.6222 5.87071 18.0292 4.88804 18.0292 3.8634C18.0292 2.83876 17.6222 1.85609 16.8976 1.13156C16.1731 0.407036 15.1904 0 14.1658 0C13.1412 0 12.1585 0.407036 11.434 1.13156C10.7094 1.85609 10.3024 2.83876 10.3024 3.8634C10.3024 4.88804 10.7094 5.87071 11.434 6.59524C12.1585 7.31976 13.1412 7.7268 14.1658 7.7268Z" fill="#FAFAFA"/>
<path fill-rule="evenodd" clip-rule="evenodd" d="M6.71716 15.4536C6.52625 15.0516 6.43105 14.6108 6.439 14.1658C6.439 12.4208 7.3147 10.6244 8.93218 9.37519C8.12485 9.12643 7.28373 9.00478 6.439 9.0146C1.2878 9.0146 0 12.878 0 14.1658C0 15.4536 1.2878 15.4536 1.2878 15.4536H6.71716Z" fill="#FAFAFA"/>
<path d="M5.79518 7.7268C6.64905 7.7268 7.46794 7.3876 8.07171 6.78383C8.67549 6.18005 9.01468 5.36116 9.01468 4.5073C9.01468 3.65343 8.67549 2.83454 8.07171 2.23077C7.46794 1.62699 6.64905 1.2878 5.79518 1.2878C4.94132 1.2878 4.12243 1.62699 3.51865 2.23077C2.91488 2.83454 2.57568 3.65343 2.57568 4.5073C2.57568 5.36116 2.91488 6.18005 3.51865 6.78383C4.12243 7.3876 4.94132 7.7268 5.79518 7.7268Z" fill="#FAFAFA"/>
</svg>
