<svg width="27" height="26" viewBox="0 0 27 26" fill="none" xmlns="http://www.w3.org/2000/svg">
<path d="M7.14772 22.0698L7.57005 22.2767C9.33001 23.3109 11.301 23.7935 13.2721 23.7935C19.4668 23.7935 24.5352 18.8292 24.5352 12.7618C24.5352 9.86595 23.3384 7.03904 21.2266 4.97055C19.1148 2.90206 16.2989 1.72998 13.2721 1.72998C7.07738 1.72998 2.0089 6.69427 2.07934 12.8307C2.07934 14.8991 2.71289 16.8987 3.76876 18.6224L4.05032 19.0361L2.9241 23.1041L7.14772 22.0698Z" fill="#FAFAFA"/>
<path d="M22.4232 3.86726C20.0297 1.45411 16.7212 0.144043 13.3423 0.144043C6.16214 0.144043 0.389775 5.86676 0.460113 12.8306C0.460113 15.0369 1.09366 17.1744 2.14964 19.1049L0.319336 25.655L7.14758 23.9313C9.04822 24.9656 11.16 25.4483 13.2719 25.4483C20.3817 25.4483 26.1541 19.7255 26.1541 12.7618C26.1541 9.3832 24.8166 6.21153 22.4233 3.86726H22.4232ZM13.3423 23.3109C11.4416 23.3109 9.54099 22.8283 7.9219 21.863L7.49957 21.6562L3.41673 22.6903L4.47261 18.7603L4.19106 18.3466C1.09366 13.4513 2.57197 6.96995 7.64035 3.93616C12.7087 0.902466 19.2554 2.35042 22.3528 7.31471C25.4501 12.279 23.9718 18.6913 18.9035 21.725C17.2843 22.7592 15.3134 23.3108 13.3423 23.3108V23.3109ZM19.537 15.6577L18.7626 15.3129C18.7626 15.3129 17.6364 14.8302 16.9324 14.4855C16.862 14.4855 16.7917 14.4165 16.7212 14.4165C16.51 14.4165 16.3692 14.4855 16.2285 14.5545C16.2285 14.5545 16.1581 14.6234 15.1726 15.7266C15.1021 15.8644 14.9614 15.9334 14.8206 15.9334H14.7501C14.6798 15.9334 14.539 15.8644 14.4686 15.7955L14.1166 15.6577C13.3423 15.3129 12.6384 14.8991 12.0752 14.3476C11.9344 14.2097 11.7232 14.0718 11.5824 13.9339C11.0896 13.4513 10.5969 12.8996 10.245 12.2791L10.1745 12.1412C10.1042 12.0722 10.1042 12.0033 10.0338 11.8654C10.0338 11.7276 10.0338 11.5897 10.1042 11.5207C10.1042 11.5207 10.3858 11.1759 10.5969 10.9691C10.7377 10.8312 10.8081 10.6244 10.9489 10.4865C11.0896 10.2796 11.1601 10.0038 11.0896 9.79696C11.0193 9.45219 10.1745 7.59058 9.96342 7.17693C9.82255 6.97005 9.68187 6.90115 9.47065 6.83216H8.69633C8.55545 6.83216 8.41477 6.90115 8.2739 6.90115L8.20346 6.97005C8.06268 7.03904 7.9219 7.17693 7.78113 7.24582C7.64035 7.3838 7.56991 7.52159 7.42913 7.65958C6.93636 8.28011 6.65481 9.03854 6.65481 9.79696C6.65481 10.3485 6.79559 10.9001 7.0068 11.3828L7.07724 11.5897C7.71079 12.8996 8.55545 14.0718 9.68187 15.106L9.96342 15.3818C10.1745 15.5887 10.3858 15.7266 10.5265 15.9333C12.0048 17.1745 13.6943 18.0708 15.5949 18.5535C15.8061 18.6224 16.0877 18.6224 16.2989 18.6914H17.0028C17.3548 18.6914 17.7771 18.5535 18.0588 18.4156C18.2699 18.2777 18.4107 18.2777 18.5514 18.1398L18.6923 18.0018C18.8331 17.8639 18.9739 17.795 19.1146 17.6572C19.2554 17.5193 19.3962 17.3814 19.4666 17.2434C19.6074 16.9676 19.6777 16.6229 19.7482 16.2782V15.7955C19.7482 15.7955 19.6777 15.7266 19.537 15.6577Z" fill="#FAFAFA"/>
</svg>
