<svg width="24" height="25" viewBox="0 0 24 25" fill="none" xmlns="http://www.w3.org/2000/svg">
<g clip-path="url(#clip0_107_361)">
<path d="M9 1.57861C9 0.957512 9.50156 0.453606 10.125 0.453606H13.875C14.4984 0.453606 15 0.957512 15 1.57861C15 2.1997 14.4984 2.70361 13.875 2.70361H13.125V4.27954C14.5641 4.47548 15.8812 5.04173 16.9828 5.87704L18.0984 4.76376L17.5687 4.23361C17.1281 3.79392 17.1281 3.08189 17.5687 2.64267C18.0094 2.20298 18.7219 2.20298 19.1578 2.64267L21.8109 5.29579C22.2516 5.73173 22.2516 6.44423 21.8109 6.88486C21.3703 7.32548 20.6578 7.32548 20.2219 6.88486L19.6875 6.35517L18.5766 7.47079C19.4109 8.57236 19.9781 9.88954 20.175 11.3286H21.75V10.5786C21.75 9.95517 22.2516 9.45361 22.875 9.45361C23.4984 9.45361 24 9.95517 24 10.5786V14.3286C24 14.952 23.4984 15.4536 22.875 15.4536C22.2516 15.4536 21.75 14.952 21.75 14.3286V13.5786H20.175C19.9781 15.0177 19.4109 16.3349 18.5766 17.4364L19.6875 18.552L20.2219 18.0224C20.6578 17.5817 21.3703 17.5817 21.8109 18.0224C22.2516 18.463 22.2516 19.1755 21.8109 19.6114L19.1578 22.2645C18.7219 22.7052 18.0094 22.7052 17.5687 22.2645C17.1281 21.8239 17.1281 21.1114 17.5687 20.6755L18.0984 20.1411L16.9828 19.0302C15.8812 19.8645 14.5641 20.4317 13.125 20.6286V22.2036H13.875C14.4984 22.2036 15 22.7052 15 23.3286C15 23.952 14.4984 24.4536 13.875 24.4536H10.125C9.50156 24.4536 9 23.952 9 23.3286C9 22.7052 9.50156 22.2036 10.125 22.2036H10.875V20.6286C9.43594 20.4317 8.11875 19.8645 7.01719 19.0302L5.90156 20.1458L6.43125 20.6755C6.87187 21.1114 6.87187 21.8239 6.43125 22.2645C5.99062 22.7052 5.27813 22.7052 4.84219 22.2645L2.18906 19.6114C1.74937 19.1755 1.74937 18.463 2.18906 18.0224C2.62828 17.5817 3.34078 17.5817 3.78 18.0224L4.31016 18.552L5.42344 17.4364C4.58812 16.3349 4.02187 15.0177 3.82594 13.5786H2.25V14.3286C2.25 14.952 1.74609 15.4536 1.125 15.4536C0.503906 15.4536 0 14.952 0 14.3286V10.5786C0 9.95517 0.503906 9.45361 1.125 9.45361C1.74609 9.45361 2.25 9.95517 2.25 10.5786V11.3286H3.82594C4.02187 9.88954 4.58812 8.57236 5.42344 7.47079L4.31016 6.35517L3.78 6.88486C3.34031 7.32548 2.62828 7.32548 2.18906 6.88486C1.74937 6.44423 1.74937 5.73173 2.18906 5.29579L4.84219 2.64267C5.27813 2.20345 5.99062 2.20345 6.43125 2.64267C6.87187 3.08189 6.87187 3.79439 6.43125 4.23361L5.90156 4.76376L7.01719 5.87704C8.11875 5.04173 9.43594 4.47548 10.875 4.27954V2.70361H10.125C9.50156 2.70361 9 2.20017 9 1.57861ZM9 8.70361C7.75781 8.70361 6.75 9.71142 6.75 10.9536C6.75 12.1958 7.75781 13.2036 9 13.2036C10.2422 13.2036 11.25 12.1958 11.25 10.9536C11.25 9.71142 10.2422 8.70361 9 8.70361ZM14.25 15.8286C14.8734 15.8286 15.375 15.327 15.375 14.7036C15.375 14.0802 14.8734 13.5786 14.25 13.5786C13.6266 13.5786 13.125 14.0802 13.125 14.7036C13.125 15.327 13.6266 15.8286 14.25 15.8286Z" fill="#FAFAFA"/>
</g>
<defs>
<clipPath id="clip0_107_361">
<rect width="24" height="24" fill="white" transform="translate(0 0.453606)"/>
</clipPath>
</defs>
</svg>
