<svg width="28" height="26" viewBox="0 0 28 26" fill="none" xmlns="http://www.w3.org/2000/svg">
<path fill-rule="evenodd" clip-rule="evenodd" d="M13.9081 0.215332C6.65302 0.215332 0.776733 5.97095 0.776733 13.077C0.776733 18.7683 4.53559 23.5754 9.75531 25.2796C10.4119 25.3921 10.6581 25.0063 10.6581 24.6687C10.6581 24.3632 10.6417 23.3503 10.6417 22.2732C7.34242 22.868 6.48888 21.4854 6.22625 20.7619C6.07852 20.3921 5.43837 19.2507 4.88029 18.9452C4.42069 18.704 3.76412 18.1092 4.86387 18.0931C5.89797 18.077 6.63661 19.0256 6.88282 19.4114C8.06464 21.3568 9.95228 20.8101 10.7073 20.4725C10.8222 19.6365 11.1669 19.0738 11.5445 18.7523C8.62273 18.4307 5.56968 17.3214 5.56968 12.4018C5.56968 11.0031 6.07852 9.84553 6.91565 8.94522C6.78434 8.62367 6.32474 7.30535 7.04696 5.53686C7.04696 5.53686 8.14671 5.19924 10.6581 6.85519C11.7086 6.5658 12.8248 6.4211 13.9409 6.4211C15.0571 6.4211 16.1733 6.5658 17.2238 6.85519C19.7351 5.18317 20.8349 5.53686 20.8349 5.53686C21.5571 7.30535 21.0975 8.62367 20.9662 8.94522C21.8033 9.84553 22.3122 10.987 22.3122 12.4018C22.3122 17.3375 19.2427 18.4307 16.321 18.7523C16.797 19.1542 17.2074 19.9259 17.2074 21.1317C17.2074 22.8519 17.1909 24.2346 17.1909 24.6687C17.1909 25.0063 17.4372 25.4082 18.0937 25.2796C20.7005 24.4175 22.9657 22.7766 24.5704 20.5876C26.1752 18.3986 27.0387 15.7719 27.0395 13.077C27.0395 5.97095 21.1632 0.215332 13.9081 0.215332Z" fill="#FAFAFA"/>
</svg>
