<svg width="112" height="98" viewBox="0 0 112 98" fill="none" xmlns="http://www.w3.org/2000/svg">
<path d="M57.4731 5.57684e-06C56.9504 -0.000928589 56.4341 0.115509 55.9623 0.340746C55.4905 0.565983 55.0752 0.894283 54.7469 1.30147L54.1248 1.76328C42.0668 -1.97318 28.3102 0.769688 18.7336 10.0059C14.7233 13.815 11.74 18.5771 10.0608 23.8495C8.38166 29.122 8.06119 34.7338 9.12917 40.1635C9.01048 40.2684 8.89395 40.3757 8.77966 40.4854L3.33433 45.7332C2.28098 46.7335 1.44212 47.9379 0.868878 49.2732C0.295631 50.6085 0 52.0467 0 53.5C0 54.9534 0.295631 56.3915 0.868878 57.7268C1.44212 59.0621 2.28098 60.2666 3.33433 61.2668C6.11642 63.9537 9.97498 64.9613 13.5609 64.2896C14.0013 66.3118 15.0289 68.236 16.6576 69.8033C18.8035 71.8745 21.5926 72.945 24.4027 73.022C24.4796 75.7299 25.591 78.4168 27.737 80.4879C29.8829 82.5591 32.679 83.6367 35.489 83.7066C35.5589 86.4145 36.6774 89.1084 38.8234 91.1795C40.8778 93.1312 43.5691 94.2718 46.3989 94.3901C49.2288 94.5085 52.0057 93.5966 54.2157 91.8233L57.2704 94.7621C61.7441 99.0793 68.9998 99.0793 73.4735 94.7621C75.6125 92.7049 76.724 90.032 76.8218 87.3311C79.6951 87.257 82.4373 86.1117 84.511 84.1195C86.65 82.0553 87.7614 79.3824 87.8453 76.6815C90.6862 76.5818 93.3911 75.4385 95.4436 73.4698C97.1422 71.8395 98.1907 69.8173 98.5962 67.7042C100.395 68.02 102.244 67.9085 103.992 67.3786C105.74 66.8487 107.34 65.9153 108.662 64.6534C109.716 63.6531 110.556 62.4482 111.13 61.1123C111.704 59.7763 112 58.3374 112 56.8831C112 55.4289 111.704 53.9899 111.13 52.654C110.556 51.3181 109.716 50.1132 108.662 49.1128L103.629 44.2638L104.657 40.4154C106.735 32.5476 105.683 24.1795 101.721 17.073C95.877 6.53532 84.539 0.0279937 72.2782 0.0279937H63.6803C63.3101 0.00962604 62.9396 0.000294128 62.5689 5.57684e-06H57.4731ZM74.6199 26.0013L91.4313 42.2137L91.4522 42.2277L103.622 53.9688C104.017 54.3441 104.332 54.796 104.547 55.2971C104.763 55.7981 104.874 56.3378 104.874 56.8831C104.874 57.4285 104.763 57.9682 104.547 58.4692C104.332 58.9702 104.017 59.4222 103.622 59.7974C102.805 60.5715 101.724 61.003 100.599 61.003C99.4742 61.003 98.3922 60.5715 97.5756 59.7974L88.3416 50.8971C87.6648 50.2471 86.7631 49.8841 85.8251 49.8841C84.8872 49.8841 83.9855 50.2471 83.3087 50.8971L83.2108 50.9811C82.8813 51.2936 82.6188 51.6701 82.4394 52.0875C82.26 52.505 82.1675 52.9546 82.1675 53.4091C82.1675 53.8635 82.26 54.3132 82.4394 54.7306C82.6188 55.1481 82.8813 55.5245 83.2108 55.8371L90.4107 62.7782C92.0883 64.3876 92.0883 67.0045 90.4107 68.6208C89.6683 69.325 88.7041 69.7486 87.6837 69.8188C86.6633 69.889 85.6503 69.6015 84.8186 69.0057C84.1244 68.5036 83.2765 68.2609 82.4222 68.3197C81.5679 68.3785 80.7611 68.7351 80.1422 69.3275C79.5373 69.9065 79.172 70.692 79.1189 71.5281C79.0658 72.3642 79.3288 73.1897 79.8556 73.8407C80.483 74.6274 80.7925 75.6214 80.7226 76.6257C80.6527 77.63 80.2085 78.5714 79.4781 79.2634C78.7251 79.9782 77.7442 80.4039 76.7083 80.4653C75.6724 80.5268 74.6481 80.2201 73.8161 79.5993C73.1254 79.0807 72.2739 78.823 71.4119 78.8716C70.5499 78.9203 69.7327 79.2722 69.1047 79.8652C68.4919 80.4433 68.1203 81.2321 68.0645 82.0732C68.0088 82.9142 68.273 83.7452 68.8041 84.3993C69.4463 85.1966 69.7649 86.2069 69.6962 87.2287C69.6275 88.2506 69.1767 89.2091 68.4336 89.9131C67.6063 90.6991 66.5091 91.1372 65.3685 91.1372C64.2278 91.1372 63.1307 90.6991 62.3033 89.9131L59.2765 86.9953L60.381 85.9317C61.4354 84.9314 62.2752 83.7265 62.8491 82.3905C63.423 81.0546 63.719 79.6156 63.719 78.1614C63.719 76.7072 63.423 75.2682 62.8491 73.9323C62.2752 72.5963 61.4354 71.3914 60.381 70.3911C58.2919 68.3869 55.5287 67.2386 52.6359 67.1724C52.551 64.3391 51.3529 61.6537 49.3016 59.6995C47.2097 57.6962 44.4438 56.5504 41.5495 56.4878C41.4647 53.6545 40.2665 50.9691 38.2152 49.0149C36.8723 47.7354 35.2443 46.7946 33.4659 46.2701C31.6876 45.7457 29.81 45.6528 27.9886 45.9991C27.5278 43.8936 26.4496 41.9737 24.892 40.4854C23.6979 39.3448 22.2751 38.4716 20.7179 37.9239C19.1608 37.3762 17.505 37.1665 15.8607 37.3087C15.31 33.2085 15.7388 29.036 17.1119 25.1339C18.4851 21.2318 20.7633 17.7115 23.7596 14.8619C26.7873 11.9664 30.4174 9.77729 34.3898 8.45144C38.3622 7.12559 42.5784 6.69586 46.7362 7.19305L36.5655 14.68C35.2642 15.6265 34.168 16.8272 33.3432 18.2095C32.5183 19.5919 31.9819 21.1272 31.7663 22.7229C31.5507 24.3185 31.6604 25.9414 32.0888 27.4934C32.5172 29.0454 33.2554 30.4944 34.2588 31.753C36.288 34.2999 39.2202 35.9656 42.4452 36.4035C45.6702 36.8414 48.9396 36.0178 51.5734 34.104L62.5899 26.0083H74.6129L74.6199 26.0013ZM40.7037 20.3127L58.8222 6.99713H62.5689C62.9116 6.99531 63.2543 7.00464 63.5965 7.02512H72.2782C82.0924 7.02512 91.0468 12.238 95.6114 20.4736C98.701 26.0433 99.5119 32.5156 97.8971 38.6241L97.8762 38.6941L78.5834 20.0328C77.9295 19.3762 77.042 19.0063 76.1158 19.0042H61.4365C60.6946 19.0056 59.9724 19.2433 59.3744 19.6829L47.4352 28.4573C46.2625 29.2979 44.8132 29.6582 43.3838 29.4644C41.9545 29.2705 40.6531 28.5373 39.7461 27.4147C39.3233 26.8935 39.0117 26.2912 38.8303 25.6448C38.6489 24.9985 38.6016 24.3218 38.6913 23.6565C38.781 22.9912 39.0059 22.3513 39.3519 21.7762C39.698 21.2011 40.1581 20.7031 40.7037 20.3127ZM43.7934 80.5579L43.8633 80.4879L49.3016 75.2401L49.3645 75.1841C50.1857 74.4367 51.2588 74.0278 52.3686 74.0395C53.4785 74.0512 54.5428 74.4826 55.3481 75.2471C55.7434 75.6224 56.0582 76.0743 56.2734 76.5753C56.4885 77.0764 56.5995 77.616 56.5995 78.1614C56.5995 78.7068 56.4885 79.2464 56.2734 79.7475C56.0582 80.2485 55.7434 80.7004 55.3481 81.0757L49.9027 86.3235C49.0861 87.0976 48.0042 87.5291 46.8795 87.5291C45.7548 87.5291 44.6729 87.0976 43.8563 86.3235C43.4661 85.9539 43.1541 85.5095 42.9388 85.0168C42.7234 84.5242 42.6091 83.9932 42.6026 83.4555C42.596 82.9178 42.6975 82.3843 42.9008 81.8865C43.1042 81.3888 43.4053 80.937 43.7864 80.5579H43.7934ZM44.3316 70.3281L44.2617 70.3911L38.8234 75.6389L38.7534 75.7019C37.9318 76.4464 36.8596 76.8528 35.7515 76.8398C34.6433 76.8268 33.5809 76.3954 32.7769 75.6319C32.386 75.2606 32.0738 74.8143 31.8589 74.3196C31.6441 73.8249 31.531 73.2919 31.5265 72.7525C31.5219 72.2131 31.6259 71.6783 31.8324 71.18C32.0388 70.6817 32.3434 70.2302 32.7279 69.8523L32.7769 69.8033L38.2152 64.5555L38.2641 64.5065C39.0843 63.7532 40.1595 63.3393 41.2725 63.3484C42.3856 63.3575 43.4539 63.7889 44.2617 64.5555C44.6529 64.9253 44.9658 65.37 45.1818 65.8633C45.3978 66.3567 45.5125 66.8884 45.519 67.427C45.5255 67.9655 45.4238 68.4999 45.2198 68.9983C45.0158 69.4967 44.7137 69.9489 44.3316 70.3281ZM33.1823 59.6995L27.737 64.9473L27.688 64.9963C26.8678 65.7496 25.7927 66.1635 24.6796 66.1544C23.5665 66.1453 22.4983 65.7139 21.6905 64.9473C21.2952 64.5721 20.9803 64.1201 20.7652 63.6191C20.55 63.118 20.4391 62.5784 20.4391 62.033C20.4391 61.4877 20.55 60.948 20.7652 60.447C20.9803 59.9459 21.2952 59.494 21.6905 59.1187L27.1288 53.8709C27.9458 53.0947 29.0292 52.662 30.1556 52.662C31.2819 52.662 32.3653 53.0947 33.1823 53.8709C33.5743 54.2423 33.8874 54.689 34.1028 55.1844C34.3183 55.6797 34.4317 56.2135 34.4363 56.7538C34.4409 57.294 34.3365 57.8297 34.1294 58.3286C33.9224 58.8275 33.6169 59.2795 33.2312 59.6575L33.1823 59.6995ZM19.8591 51.17L14.4207 56.4178C13.6045 57.1956 12.5208 57.6293 11.394 57.6293C10.2671 57.6293 9.18342 57.1956 8.36725 56.4178C7.97082 56.0425 7.65505 55.5901 7.43924 55.0884C7.22344 54.5867 7.11213 54.0463 7.11213 53.5C7.11213 52.9538 7.22344 52.4133 7.43924 51.9116C7.65505 51.4099 7.97082 50.9576 8.36725 50.5822L13.8126 45.3344C14.6292 44.5603 15.7111 44.1288 16.8358 44.1288C17.9605 44.1288 19.0424 44.5603 19.8591 45.3344C20.2555 45.7097 20.5713 46.1621 20.7871 46.6638C21.0029 47.1655 21.1142 47.706 21.1142 48.2522C21.1142 48.7984 21.0029 49.3389 20.7871 49.8406C20.5713 50.3423 20.2555 50.7946 19.8591 51.17Z" fill="#FAFAFA" fill-opacity="0.1"/>
</svg>
