<svg width="32" height="31" viewBox="0 0 32 31" fill="none" xmlns="http://www.w3.org/2000/svg">
<path d="M26.69 25.5709H22.1501V18.6071C22.1501 16.9466 22.1198 14.8089 19.7889 14.8089C17.4244 14.8089 17.0626 16.6182 17.0626 18.4863V25.5704H12.5229V11.2502H16.881V13.2072H16.9421C17.3782 12.4768 18.0085 11.8759 18.7657 11.4685C19.523 11.0611 20.3788 10.8626 21.2422 10.8939C25.8435 10.8939 26.6919 13.8584 26.6919 17.715L26.69 25.5709ZM7.40027 9.29282C5.94523 9.29305 4.76548 8.13788 4.76524 6.71273C4.765 5.28757 5.94427 4.13205 7.39931 4.13181C8.85434 4.13146 10.0341 5.28663 10.0343 6.71179C10.0345 7.39618 9.75702 8.05258 9.26304 8.53662C8.76906 9.02065 8.099 9.29266 7.40027 9.29282ZM9.67025 25.571H5.12561V11.2502H9.67013V25.5709L9.67025 25.571ZM28.9533 0.0021842H2.84438C1.61041 -0.0114144 0.598455 0.95678 0.583374 2.16541V27.8448C0.597976 29.054 1.60981 30.0231 2.84426 30.0105H28.9533C30.1903 30.0255 31.2061 29.0563 31.2232 27.8448V2.16342C31.2056 0.952443 30.1897 -0.0156346 28.9533 0.000191305" fill="#FAFAFA"/>
</svg>
