<svg width="31" height="24" viewBox="0 0 31 24" fill="none" xmlns="http://www.w3.org/2000/svg">
<path d="M29.9084 0.215332H1.54947C0.946159 0.215332 0.45874 0.692741 0.45874 1.28366V22.6502C0.45874 23.2412 0.946159 23.7186 1.54947 23.7186H29.9084C30.5117 23.7186 30.9991 23.2412 30.9991 22.6502V1.28366C30.9991 0.692741 30.5117 0.215332 29.9084 0.215332ZM28.545 3.91442V21.3148H2.91288V3.91442L1.97213 3.19664L3.31168 1.51068L4.77052 2.62241H26.6907L28.1496 1.51068L29.4891 3.19664L28.545 3.91442ZM26.6907 2.61907L15.7289 10.9654L4.76712 2.61907L3.30827 1.50734L1.96872 3.1933L2.90947 3.91108L14.553 12.7782C14.8878 13.033 15.2998 13.1713 15.7238 13.1713C16.1478 13.1713 16.5598 13.033 16.8946 12.7782L28.545 3.91442L29.4857 3.19664L28.1462 1.51068L26.6907 2.61907Z" fill="#FAFAFA"/>
</svg>
