<svg width="52" height="52" viewBox="0 0 52 52" fill="none" xmlns="http://www.w3.org/2000/svg">
<path fill-rule="evenodd" clip-rule="evenodd" d="M14.0518 39.9281C22.9503 38.6281 29.0772 38.7399 37.9874 39.9736C38.6327 40.0671 39.2223 40.391 39.6474 40.8853C40.0725 41.3797 40.3043 42.0112 40.3001 42.6633C40.3001 43.2873 40.0856 43.8931 39.6982 44.3662C39.023 45.1913 38.3312 46.0026 37.6234 46.7999H41.0567C41.2725 46.5425 41.4896 46.2799 41.7093 46.0134C42.4804 45.0677 42.9011 43.8847 42.9001 42.6646C42.9001 40.0321 40.9787 37.7636 38.3436 37.3996C29.2228 36.1373 22.8476 36.0164 13.6761 37.3567C11.0137 37.7454 9.1001 40.049 9.1001 42.6997C9.1001 43.8762 9.4836 45.0396 10.2103 45.9822C10.4248 46.2603 10.6367 46.5334 10.8473 46.8012H14.1974C13.5388 46.0127 12.8965 45.2109 12.2708 44.3962C11.8989 43.9084 11.6984 43.3117 11.7001 42.6984C11.7001 41.2983 12.7063 40.1244 14.0518 39.9281ZM26.0001 27.2999C27.0244 27.2999 28.0387 27.0981 28.985 26.7061C29.9314 26.3141 30.7912 25.7396 31.5155 25.0153C32.2398 24.291 32.8144 23.4311 33.2064 22.4848C33.5983 21.5384 33.8001 20.5242 33.8001 19.4999C33.8001 18.4755 33.5983 17.4613 33.2064 16.5149C32.8144 15.5686 32.2398 14.7087 31.5155 13.9844C30.7912 13.2601 29.9314 12.6856 28.985 12.2936C28.0387 11.9016 27.0244 11.6999 26.0001 11.6999C23.9314 11.6999 21.9474 12.5216 20.4847 13.9844C19.0219 15.4472 18.2001 17.4312 18.2001 19.4999C18.2001 21.5685 19.0219 23.5525 20.4847 25.0153C21.9474 26.4781 23.9314 27.2999 26.0001 27.2999ZM26.0001 29.8999C28.7584 29.8999 31.4036 28.8041 33.354 26.8538C35.3044 24.9034 36.4001 22.2581 36.4001 19.4999C36.4001 16.7416 35.3044 14.0963 33.354 12.1459C31.4036 10.1956 28.7584 9.09985 26.0001 9.09985C23.2418 9.09985 20.5966 10.1956 18.6462 12.1459C16.6958 14.0963 15.6001 16.7416 15.6001 19.4999C15.6001 22.2581 16.6958 24.9034 18.6462 26.8538C20.5966 28.8041 23.2418 29.8999 26.0001 29.8999Z" fill="#FAFAFA"/>
<path fill-rule="evenodd" clip-rule="evenodd" d="M26 49.4C38.9233 49.4 49.4 38.9233 49.4 26C49.4 13.0767 38.9233 2.6 26 2.6C13.0767 2.6 2.6 13.0767 2.6 26C2.6 38.9233 13.0767 49.4 26 49.4ZM26 52C40.3598 52 52 40.3598 52 26C52 11.6402 40.3598 0 26 0C11.6402 0 0 11.6402 0 26C0 40.3598 11.6402 52 26 52Z" fill="#FAFAFA"/>
</svg>
