<svg width="112" height="114" viewBox="0 0 112 114" fill="none" xmlns="http://www.w3.org/2000/svg">
<path fill-rule="evenodd" clip-rule="evenodd" d="M2.57971 26.8632C1.89588 26.1792 1.51172 25.2516 1.51172 24.2843C1.51172 23.3171 1.89588 22.3895 2.57971 21.7054L23.2174 1.06776C23.5562 0.729093 23.9585 0.460487 24.4012 0.27728C24.8439 0.0940736 25.3183 -0.000146208 25.7974 1.70296e-07C26.2765 0.000146548 26.7509 0.094657 27.1934 0.278134C27.636 0.461612 28.0381 0.730463 28.3768 1.06934C28.7154 1.40821 28.9841 1.81048 29.1673 2.25316C29.3505 2.69584 29.4447 3.17028 29.4445 3.64937C29.4444 4.12847 29.3499 4.60284 29.1664 5.04541C28.9829 5.48798 28.7141 5.89008 28.3752 6.22875L25.7963 8.80452L38.6909 21.6991L49.0097 11.3834C49.6937 10.699 50.6215 10.3144 51.5891 10.3141C52.0682 10.314 52.5426 10.4082 52.9853 10.5914C53.428 10.7746 53.8302 11.0432 54.1691 11.3819C54.508 11.7205 54.7768 12.1226 54.9603 12.5652C55.1438 13.0078 55.2383 13.4821 55.2384 13.9612C55.2386 14.4403 55.1444 14.9148 54.9612 15.3574C54.778 15.8001 54.5094 16.2024 54.1707 16.5413L49.0097 21.7023L92.8639 65.5565C95.3737 68.0666 97.0967 71.2543 97.8219 74.7291C98.5471 78.2038 98.2429 81.8146 96.9467 85.1191L100.601 88.7731C102.508 90.6804 103.139 93.3855 102.492 95.8194L110.919 104.247C111.258 104.585 111.527 104.988 111.711 105.43C111.894 105.873 111.988 106.348 111.988 106.827C111.988 107.306 111.894 107.781 111.711 108.224C111.527 108.666 111.258 109.069 110.919 109.408C110.581 109.746 110.178 110.015 109.736 110.199C109.293 110.382 108.818 110.476 108.339 110.476C107.86 110.476 107.385 110.382 106.942 110.199C106.5 110.015 106.097 109.746 105.759 109.408L97.3313 100.98C96.0937 101.312 94.7905 101.312 93.5529 100.98C92.3153 100.648 91.1871 99.9956 90.2819 99.0887L86.631 95.4379C83.3263 96.7337 79.7153 97.0374 76.2405 96.3116C72.7658 95.5859 69.5782 93.8623 67.0684 91.352L60.3216 84.6052L81.656 63.2676L44.5486 26.1602L27.6721 43.0398L35.1441 50.5086H26.2251L23.2142 47.4977L18.0564 52.6556C17.7199 53.0039 17.3174 53.2818 16.8724 53.4729C16.4273 53.6641 15.9487 53.7647 15.4644 53.7689C14.9801 53.7731 14.4998 53.6807 14.0515 53.4973C13.6032 53.3139 13.196 53.0431 12.8535 52.7006C12.511 52.3581 12.2402 51.9509 12.0568 51.5026C11.8734 51.0544 11.7811 50.5741 11.7853 50.0897C11.7895 49.6054 11.8901 49.1268 12.0812 48.6818C12.2723 48.2367 12.5502 47.8342 12.8985 47.4977L23.2174 37.1789L10.3228 24.2843L7.73755 26.8632C7.05351 27.5471 6.12587 27.9312 5.15863 27.9312C4.1914 27.9312 3.26376 27.5471 2.57971 26.8632ZM21.3383 13.2656L34.2329 26.1602L27.6753 32.7178L14.7807 19.8232L21.3383 13.2656ZM71.5264 86.8909L69.9374 85.3019L86.8139 68.4223L88.4028 70.0113C90.0464 71.6541 91.1748 73.7409 91.6497 76.0156C92.1246 78.2904 91.9253 80.6544 91.0763 82.8176L84.3295 89.5644C82.1668 90.4131 79.8034 90.6123 77.5292 90.1374C75.2549 89.6625 73.1687 88.5342 71.5264 86.8909ZM92.8639 91.3488C92.6303 91.5831 92.3895 91.8102 92.142 92.0298L94.7398 94.6276C94.8317 94.7197 94.9409 94.7929 95.061 94.8428C95.1812 94.8927 95.31 94.9185 95.4402 94.9187C95.5703 94.9188 95.6992 94.8933 95.8195 94.8437C95.9397 94.794 96.049 94.7211 96.1412 94.6292C96.2333 94.5373 96.3064 94.4281 96.3563 94.308C96.4063 94.1878 96.432 94.059 96.4322 93.9288C96.4323 93.7987 96.4068 93.6698 96.3572 93.5496C96.3075 93.4293 96.2346 93.3199 96.1427 93.2278L93.5449 90.63C93.3244 90.8756 93.0973 91.1153 92.8639 91.3488Z" fill="#FAFAFA" fill-opacity="0.1"/>
<path d="M31.5269 69.4248C32.363 69.4248 33.1649 69.757 33.7562 70.3482C34.3474 70.9395 34.6796 71.7414 34.6796 72.5775V78.8829H40.985C41.8211 78.8829 42.6231 79.2151 43.2143 79.8063C43.8056 80.3976 44.1377 81.1995 44.1377 82.0357C44.1377 82.8718 43.8056 83.6737 43.2143 84.265C42.6231 84.8562 41.8211 85.1884 40.985 85.1884H34.6796V91.4938C34.6796 92.3299 34.3474 93.1318 33.7562 93.7231C33.1649 94.3143 32.363 94.6465 31.5269 94.6465C30.6907 94.6465 29.8888 94.3143 29.2976 93.7231C28.7063 93.1318 28.3742 92.3299 28.3742 91.4938V85.1884H22.0687C21.2326 85.1884 20.4307 84.8562 19.8394 84.265C19.2482 83.6737 18.916 82.8718 18.916 82.0357C18.916 81.1995 19.2482 80.3976 19.8394 79.8063C20.4307 79.2151 21.2326 78.8829 22.0687 78.8829H28.3742V72.5775C28.3742 71.7414 28.7063 70.9395 29.2976 70.3482C29.8888 69.757 30.6907 69.4248 31.5269 69.4248Z" fill="#FAFAFA" fill-opacity="0.1"/>
<path fill-rule="evenodd" clip-rule="evenodd" d="M8.38635 99.9717C13.8075 106.836 21.4192 111.634 29.9509 113.563C38.4822 111.635 46.094 106.838 51.5154 99.9748C56.9714 93.0702 59.9274 84.521 59.9017 75.721V64.3807C59.9017 62.3724 59.1135 60.4493 57.7105 59.0306C57.0184 58.3289 56.1938 57.7716 55.2845 57.3912C54.3753 57.0107 53.3996 56.8146 52.414 56.8142H7.49098C5.50478 56.8142 3.60054 57.6118 2.19443 59.0306C0.787292 60.4556 -0.00116289 62.378 0.000140423 64.3807V75.7242C-0.0234762 84.5209 2.93245 93.0665 8.38635 99.9685V99.9717ZM53.5962 75.7273V75.7399C53.6169 83.1119 51.1411 90.2738 46.572 96.0592C42.3475 101.409 36.5221 105.267 29.9477 107.068C23.3757 105.266 17.5526 101.408 13.3298 96.0592C8.76029 90.274 6.28442 83.112 6.30556 75.7399V64.3807C6.30556 64.0245 6.44743 63.6966 6.67443 63.4664C6.77975 63.3578 6.90563 63.2712 7.04473 63.2117C7.18383 63.1521 7.33338 63.1208 7.48468 63.1196H52.4171C52.7072 63.1196 53.0004 63.2363 53.2274 63.4664C53.4654 63.7111 53.5979 64.0394 53.5962 64.3807V75.7242V75.7273Z" fill="#FAFAFA" fill-opacity="0.1"/>
</svg>
