<svg width="122" height="122" viewBox="0 0 122 122" fill="none" xmlns="http://www.w3.org/2000/svg">
<path d="M45.75 5.71875C45.75 2.56152 48.2996 0 51.4688 0H70.5312C73.7004 0 76.25 2.56152 76.25 5.71875C76.25 8.87598 73.7004 11.4375 70.5312 11.4375H66.7188V19.4485C74.034 20.4445 80.7297 23.323 86.3293 27.5691L92.0004 21.91L89.3078 19.215C87.068 16.9799 87.068 13.3604 89.3078 11.1277C91.5477 8.89266 95.1695 8.89266 97.3856 11.1277L110.872 24.6145C113.112 26.8305 113.112 30.4523 110.872 32.6922C108.632 34.932 105.011 34.932 102.795 32.6922L100.078 29.9996L94.4309 35.6707C98.6723 41.2703 101.555 47.966 102.556 55.2812H110.562V51.4688C110.562 48.2996 113.112 45.75 116.281 45.75C119.45 45.75 122 48.2996 122 51.4688V70.5312C122 73.7004 119.45 76.25 116.281 76.25C113.112 76.25 110.562 73.7004 110.562 70.5312V66.7188H102.556C101.555 74.034 98.6723 80.7297 94.4309 86.3293L100.078 92.0004L102.795 89.3078C105.011 87.068 108.632 87.068 110.872 89.3078C113.112 91.5477 113.112 95.1695 110.872 97.3856L97.3856 110.872C95.1695 113.112 91.5477 113.112 89.3078 110.872C87.068 108.632 87.068 105.011 89.3078 102.795L92.0004 100.078L86.3293 94.4309C80.7297 98.6723 74.034 101.555 66.7188 102.556V110.562H70.5312C73.7004 110.562 76.25 113.112 76.25 116.281C76.25 119.45 73.7004 122 70.5312 122H51.4688C48.2996 122 45.75 119.45 45.75 116.281C45.75 113.112 48.2996 110.562 51.4688 110.562H55.2812V102.556C47.966 101.555 41.2703 98.6723 35.6707 94.4309L29.9996 100.102L32.6922 102.795C34.932 105.011 34.932 108.632 32.6922 110.872C30.4523 113.112 26.8305 113.112 24.6145 110.872L11.1277 97.3856C8.89266 95.1695 8.89266 91.5477 11.1277 89.3078C13.3604 87.068 16.9823 87.068 19.215 89.3078L21.91 92.0004L27.5691 86.3293C23.323 80.7297 20.4445 74.034 19.4485 66.7188H11.4375V70.5312C11.4375 73.7004 8.87598 76.25 5.71875 76.25C2.56152 76.25 0 73.7004 0 70.5312V51.4688C0 48.2996 2.56152 45.75 5.71875 45.75C8.87598 45.75 11.4375 48.2996 11.4375 51.4688V55.2812H19.4485C20.4445 47.966 23.323 41.2703 27.5691 35.6707L21.91 29.9996L19.215 32.6922C16.9799 34.932 13.3604 34.932 11.1277 32.6922C8.89266 30.4523 8.89266 26.8305 11.1277 24.6145L24.6145 11.1277C26.8305 8.89504 30.4523 8.89504 32.6922 11.1277C34.932 13.3604 34.932 16.9823 32.6922 19.215L29.9996 21.91L35.6707 27.5691C41.2703 23.323 47.966 20.4445 55.2812 19.4485V11.4375H51.4688C48.2996 11.4375 45.75 8.87836 45.75 5.71875ZM45.75 41.9375C39.4355 41.9375 34.3125 47.0605 34.3125 53.375C34.3125 59.6895 39.4355 64.8125 45.75 64.8125C52.0645 64.8125 57.1875 59.6895 57.1875 53.375C57.1875 47.0605 52.0645 41.9375 45.75 41.9375ZM72.4375 78.1562C75.6066 78.1562 78.1562 75.6066 78.1562 72.4375C78.1562 69.2684 75.6066 66.7188 72.4375 66.7188C69.2684 66.7188 66.7188 69.2684 66.7188 72.4375C66.7188 75.6066 69.2684 78.1562 72.4375 78.1562Z" fill="#FAFAFA" fill-opacity="0.1"/>
</svg>
