<svg width="25" height="16" viewBox="0 0 25 16" fill="none" xmlns="http://www.w3.org/2000/svg">
<path d="M0 13.2036V2.70361C0 2.00742 0.32924 1.33974 0.915291 0.847458C1.50134 0.355175 2.2962 0.0786133 3.125 0.0786133H21.875C22.7038 0.0786133 23.4987 0.355175 24.0847 0.847458C24.6708 1.33974 25 2.00742 25 2.70361V13.2036C25 13.8998 24.6708 14.5675 24.0847 15.0598C23.4987 15.5521 22.7038 15.8286 21.875 15.8286H3.125C2.2962 15.8286 1.50134 15.5521 0.915291 15.0598C0.32924 14.5675 0 13.8998 0 13.2036ZM10.6094 4.13818C10.4926 4.06831 10.3551 4.0268 10.2121 4.01819C10.069 4.00959 9.92593 4.03422 9.79845 4.08939C9.67097 4.14456 9.56403 4.22813 9.48934 4.33096C9.41465 4.43379 9.37509 4.5519 9.375 4.67236V11.2349C9.37509 11.3553 9.41465 11.4734 9.48934 11.5763C9.56403 11.6791 9.67097 11.7627 9.79845 11.8178C9.92593 11.873 10.069 11.8976 10.2121 11.889C10.3551 11.8804 10.4926 11.8389 10.6094 11.7691L16.0781 8.4878C16.1794 8.42709 16.2619 8.34695 16.3189 8.25403C16.3759 8.16112 16.4056 8.05812 16.4056 7.95361C16.4056 7.8491 16.3759 7.74611 16.3189 7.65319C16.2619 7.56028 16.1794 7.48013 16.0781 7.41943L10.6094 4.13818Z" fill="#FAFAFA"/>
</svg>
